<!DOCTYPE svg PUBLIC "-//W3C//DTD SVG 20010904//EN" "http://www.w3.org/TR/2001/REC-SVG-20010904/DTD/svg10.dtd">
<svg version="1.0" xmlns="http://www.w3.org/2000/svg" width="31px" height="25px" viewBox="0 0 310 250" preserveAspectRatio="xMidYMid meet">
<g id="layer101" fill="#0c0c0c" stroke="none">
 <path d="M71 138 c-39 -62 -71 -118 -71 -125 0 -10 34 -13 155 -13 121 0 155 3 155 13 0 22 -141 237 -155 237 -7 0 -45 -50 -84 -112z m125 -33 c-7 -11 -19 -30 -27 -42 -13 -22 -14 -21 -41 20 -24 36 -26 44 -14 62 7 11 19 30 27 42 13 22 14 21 41 -20 24 -36 26 -44 14 -62z m-107 -73 c-41 -4 -45 2 -24 34 l17 26 19 -28 19 -29 -31 -3z m171 7 c0 -5 -16 -9 -36 -9 l-35 0 18 31 18 30 17 -22 c10 -11 18 -25 18 -30z"/>
 </g>

</svg>